<?xml version="1.0" encoding="UTF-8" standalone="no"?>
<!-- Created with Inkscape (http://www.inkscape.org/) -->

<svg
   xmlns:dc="http://purl.org/dc/elements/1.1/"
   xmlns:cc="http://creativecommons.org/ns#"
   xmlns:rdf="http://www.w3.org/1999/02/22-rdf-syntax-ns#"
   xmlns:svg="http://www.w3.org/2000/svg"
   xmlns="http://www.w3.org/2000/svg"
   xmlns:sodipodi="http://sodipodi.sourceforge.net/DTD/sodipodi-0.dtd"
   xmlns:inkscape="http://www.inkscape.org/namespaces/inkscape"
   width="210mm"
   height="297mm"
   id="svg2"
   version="1.1"
   inkscape:version="0.48.4 r9939"
   sodipodi:docname="Documento nuevo 1">
  <defs
     id="defs4" />
  <sodipodi:namedview
     id="base"
     pagecolor="#ffffff"
     bordercolor="#666666"
     borderopacity="1.0"
     inkscape:pageopacity="0.0"
     inkscape:pageshadow="2"
     inkscape:zoom="0.7"
     inkscape:cx="192.88363"
     inkscape:cy="761.78227"
     inkscape:document-units="px"
     inkscape:current-layer="g3783"
     showgrid="false"
     inkscape:window-width="1366"
     inkscape:window-height="715"
     inkscape:window-x="-8"
     inkscape:window-y="-8"
     inkscape:window-maximized="1" />
  <metadata
     id="metadata7">
    <rdf:RDF>
      <cc:Work
         rdf:about="">
        <dc:format>image/svg+xml</dc:format>
        <dc:type
           rdf:resource="http://purl.org/dc/dcmitype/StillImage" />
        <dc:title></dc:title>
      </cc:Work>
    </rdf:RDF>
  </metadata>
  <g
     inkscape:label="Capa 1"
     inkscape:groupmode="layer"
     id="layer1">
    <g
       id="g3783"
       transform="matrix(1.5038949,0,0,1.5314726,65.111717,-194.16027)"
       style="fill:#ffffff">
      <g
         id="g3807">
        <rect
           transform="matrix(0.66494008,0,0,0.6529663,-43.295391,126.78011)"
           ry="38.329193"
           y="247.80162"
           x="277.22153"
           height="267.14285"
           width="267.14285"
           id="rect3771"
           style="fill:#00618c;fill-opacity:1" />
        <g
           style="font-size:42.67756271px;font-style:normal;font-weight:normal;line-height:125%;letter-spacing:0px;word-spacing:0px;fill:#ffffff;fill-opacity:1;stroke:none;font-family:Sans"
           id="text3767"
           transform="matrix(1.1009895,0,0,1.1009895,-62.912398,-58.284704)">
          <path
             d="m 272.07041,417.0956 c -7e-5,9.20237 -2.90081,16.50423 -8.70222,21.90559 -5.80154,5.40138 -13.70355,8.10207 -23.70605,8.10207 -10.00259,0 -17.80457,-2.80071 -23.40598,-8.40215 -5.60144,-5.60141 -8.40215,-12.60319 -8.40214,-21.00536 l 0,-4.20107 13.80352,0 0,3.60092 c -2e-5,6.00155 1.80044,10.60272 5.40138,13.80352 3.60089,3.20083 7.80196,4.80124 12.60322,4.80123 6.40159,10e-6 11.10278,-1.70042 14.1036,-5.10131 3.00071,-3.40084 4.50109,-7.50189 4.50115,-12.30314 -6e-5,-4.00098 -1.80052,-7.70192 -5.40138,-11.10283 -3.60097,-3.40082 -8.80229,-6.50161 -15.60399,-9.30238 -9.60247,-3.60086 -16.50423,-7.60188 -20.70528,-12.00306 -4.20109,-4.40106 -6.30162,-9.60238 -6.30161,-15.60398 -1e-5,-8.40206 2.90073,-15.20379 8.70222,-20.40521 5.80146,-5.20123 12.70321,-7.80189 20.70529,-7.80199 10.4026,10e-5 18.40959,3.35343 23.01082,9.55491 4.60111,6.20168 6.39662,12.65084 6.39668,19.85259 l -10.77306,-1.51523 c -2.63041,-4.1485 -3.83072,-6.88683 -6.63138,-10.48783 -2.80076,-3.60083 -6.80178,-5.40128 -12.00306,-5.40138 -4.80126,10e-5 -8.60223,1.30043 -11.40292,3.901 -2.80073,2.60075 -4.20109,6.10164 -4.20107,10.50268 -2e-5,3.60099 1.10026,6.70178 3.30084,9.30237 2.20054,2.60073 7.90199,5.70152 17.10437,9.30238 8.8022,3.60097 15.60393,7.90207 20.40521,12.90329 4.80116,5.00132 7.20177,10.70277 7.20184,17.10437 z"
             style="font-size:153.63922119px;font-variant:normal;font-stretch:normal;fill:#ffffff;font-family:SimHei;-inkscape-font-specification:SimHei"
             id="path3781"
             inkscape:connector-curvature="0"
             sodipodi:nodetypes="cssssccssssccccsccccccccccccc" />
        </g>
        <g
           transform="matrix(1.4142448,0,0,0.85712024,-62.912398,-58.284704)"
           style="font-size:45.59943771px;font-style:normal;font-weight:normal;line-height:125%;letter-spacing:0px;word-spacing:0px;fill:#ffffff;fill-opacity:1;stroke:none;font-family:Sans"
           id="text3773">
          <path
             d="m 255.91145,574.95632 -15.38981,-0.8839 -16.98091,-43.11913 -16.9809,29.86052 -18.96116,12.96397 13.10318,-15.55587 7.73119,-24.97064 10.3754,-17.77454 -17.86958,-40.51544 1.09974,-15.05297 4.54929,-2.59512 18.02424,48.63165 14.5611,-31.15306 13.53201,-0.64878 -22.28941,43.10153 z"
             style="font-size:164.15795898px;font-variant:normal;font-stretch:normal;fill:#ffffff;font-family:SimHei;-inkscape-font-specification:SimHei"
             id="path3778"
             inkscape:connector-curvature="0"
             sodipodi:nodetypes="cccccccccccccccc" />
        </g>
      </g>
    </g>
  </g>
</svg>
